<svg width="402" height="62" viewBox="0 0 402 62" fill="none" xmlns="http://www.w3.org/2000/svg">
<path d="M25.081 47.3453H25.9321V48H11.5944V47.3453H12.4455C13.5803 47.3453 14.5623 46.9525 15.3916 46.1669C16.2209 45.3376 16.6355 44.3556 16.6355 43.2208V3.93931L9.63034 4.33213C5.22209 4.594 3.01796 6.18709 3.01796 9.11137C3.01796 10.2898 3.38896 11.2937 4.13094 12.1229C4.91657 12.9522 6.13866 13.4105 7.79721 13.4978V13.8906C7.18616 14.0216 6.57512 14.087 5.96407 14.087C4.04365 14.087 2.60333 13.3232 1.64311 11.7956C1.07571 10.9227 0.792015 9.96247 0.792015 8.91496C0.792015 5.20505 3.60719 3.04457 9.23753 2.43352C9.28117 2.43352 11.4417 2.30259 15.719 2.04071C20.0399 1.73519 23.4443 1.34237 25.9321 0.862267L26.0631 1.51696C24.1863 1.82248 22.8551 2.45535 22.0695 3.41556C21.2838 4.37577 20.891 5.70698 20.891 7.40918V43.2208C20.9347 44.3556 21.3493 45.3376 22.1349 46.1669C22.9642 46.9525 23.9462 47.3453 25.081 47.3453ZM68.263 7.9984C68.263 6.95089 67.892 6.05615 67.15 5.31417C66.4081 4.52854 65.5351 4.1139 64.5313 4.07025H52.0921V43.2862C52.1358 44.421 52.5504 45.3812 53.3361 46.1669C54.1653 46.9525 55.1474 47.3453 56.2822 47.3453H57.1333V48H42.7955V47.3453H43.6466C44.7814 47.3453 45.7416 46.9525 46.5273 46.1669C47.3566 45.3812 47.793 44.4428 47.8367 43.3517V4.07025H35.3975C34.35 4.1139 33.4553 4.52854 32.7133 5.31417C32.015 6.05615 31.6658 6.95089 31.6658 7.9984V9.11137L31.0111 9.17684V0.927736C31.6658 1.18961 32.8006 1.45149 34.4155 1.71337C36.0304 1.97524 37.5144 2.10618 38.8674 2.10618H60.9959C63.1346 2.10618 64.9023 1.95342 66.2989 1.6479C67.7393 1.29873 68.6122 1.05867 68.9177 0.927736V9.17684L68.263 9.11137V7.9984ZM102.907 49.2439C112.203 52.4737 119.165 54.656 123.792 55.7908C128.462 56.9693 132.455 57.5585 135.772 57.5585C139.133 57.5585 142.821 56.7947 146.837 55.2671L147.164 55.7908C141.839 59.4571 136.471 61.2902 131.059 61.2902C125.516 61.2902 119.209 59.5662 112.138 56.1182C106.682 53.4121 103.3 51.7754 101.99 51.208C97.3202 49.113 93.4793 48.0436 90.4678 48V47.3453H91.3189C92.4537 47.3453 93.4139 46.9525 94.1995 46.1669C95.0288 45.3812 95.4652 44.3992 95.5089 43.2208V6.95089C95.4652 5.81609 95.0288 4.85588 94.1995 4.07025C93.4139 3.24098 92.4537 2.82634 91.3189 2.82634H90.4678V2.17165H104.805V2.82634H103.954C102.82 2.82634 101.838 3.24098 101.008 4.07025C100.179 4.85588 99.7644 5.81609 99.7644 6.95089V44.7265C99.7644 45.5122 99.808 46.1232 99.8953 46.5597C99.9826 46.9525 100.266 47.4108 100.746 47.9345C101.227 48.4583 101.947 48.8947 102.907 49.2439ZM164.491 2.82634H163.444C162.527 2.82634 161.719 3.13186 161.021 3.7429C160.366 4.3103 160.017 5.03046 159.974 5.90339V31.8291C159.974 36.9357 158.359 41.0603 155.129 44.2028C151.899 47.3453 147.6 48.9166 142.232 48.9166C136.863 48.9166 132.498 47.3671 129.138 44.2683C125.821 41.1257 124.162 37.0012 124.162 31.8946V6.09979C124.162 4.79041 123.595 3.8302 122.46 3.21915C121.936 2.95728 121.347 2.82634 120.692 2.82634H119.645V2.17165H132.935V2.82634H131.887C130.927 2.82634 130.12 3.13186 129.465 3.7429C128.81 4.3103 128.461 5.05229 128.418 5.96886V30.978C128.418 35.7355 129.683 39.5763 132.215 42.5006C134.79 45.4249 138.216 46.887 142.493 46.887C146.771 46.887 150.241 45.5122 152.903 42.7625C155.565 39.9691 156.897 36.3247 156.897 31.8291V5.96886C156.853 5.05229 156.504 4.3103 155.849 3.7429C155.194 3.13186 154.387 2.82634 153.427 2.82634H152.379V2.17165H164.491V2.82634ZM211.901 48H195.926V47.3453H196.712C197.672 47.3453 198.414 46.9088 198.938 46.0359C199.244 45.5558 199.396 45.0975 199.396 44.6611C199.396 44.2246 199.287 43.7882 199.069 43.3517L188.987 27.4427L178.904 43.2862C178.643 43.7227 178.512 44.181 178.512 44.6611C178.512 45.0975 178.664 45.534 178.97 45.9705C179.537 46.887 180.279 47.3453 181.196 47.3453H182.047V48H167.185V47.3453H168.102C169.411 47.3453 170.655 46.9743 171.834 46.2323C173.012 45.4904 173.994 44.5738 174.78 43.4826L187.284 24.8239L175.827 6.68901C175.042 5.59786 174.06 4.6813 172.881 3.93931C171.746 3.19733 170.524 2.82634 169.215 2.82634H168.298V2.17165H184.142V2.82634H183.356C182.44 2.82634 181.698 3.2628 181.13 4.13572C180.825 4.61583 180.672 5.07411 180.672 5.51057C180.672 5.94703 180.781 6.38349 180.999 6.81995L190.034 20.9613L198.938 6.88542C199.2 6.44896 199.331 6.0125 199.331 5.57604C199.331 5.09593 199.2 4.63765 198.938 4.20119C198.414 3.28462 197.672 2.82634 196.712 2.82634H195.926V2.17165H210.657V2.82634H209.74C208.431 2.82634 207.187 3.19733 206.009 3.93931C204.874 4.6813 203.914 5.59786 203.128 6.68901L191.671 23.58L204.372 43.5481C205.419 45.0321 206.751 46.1232 208.366 46.8216C209.238 47.1707 210.111 47.3453 210.984 47.3453H211.901V48ZM259.242 2.82634H258.195C257.278 2.82634 256.471 3.13186 255.772 3.7429C255.118 4.3103 254.768 5.03046 254.725 5.90339V31.8291C254.725 36.9357 253.11 41.0603 249.88 44.2028C246.65 47.3453 242.351 48.9166 236.983 48.9166C231.614 48.9166 227.25 47.3671 223.889 44.2683C220.572 41.1257 218.913 37.0012 218.913 31.8946V6.09979C218.913 4.79041 218.346 3.8302 217.211 3.21915C216.687 2.95728 216.098 2.82634 215.443 2.82634H214.396V2.17165H227.686V2.82634H226.639C225.678 2.82634 224.871 3.13186 224.216 3.7429C223.562 4.3103 223.212 5.05229 223.169 5.96886V30.978C223.169 35.7355 224.434 39.5763 226.966 42.5006C229.541 45.4249 232.967 46.887 237.245 46.887C241.522 46.887 244.992 45.5122 247.654 42.7625C250.317 39.9691 251.648 36.3247 251.648 31.8291V5.96886C251.604 5.05229 251.255 4.3103 250.6 3.7429C249.946 3.13186 249.138 2.82634 248.178 2.82634H247.13V2.17165H259.242V2.82634ZM271.191 7.86746C275.861 3.45921 281.906 1.25508 289.326 1.25508C296.789 1.25508 302.856 3.45921 307.526 7.86746C312.196 12.2321 314.531 17.9715 314.531 25.0858C314.531 32.2001 312.196 37.9614 307.526 42.3697C302.856 46.7343 296.789 48.9166 289.326 48.9166C281.906 48.9166 275.861 46.7343 271.191 42.3697C266.521 37.9614 264.186 32.2001 264.186 25.0858C264.186 17.9715 266.521 12.2321 271.191 7.86746ZM274.726 40.9293C278.436 44.9448 283.303 46.9525 289.326 46.9525C295.349 46.9525 300.194 44.9448 303.86 40.9293C307.57 36.9139 309.425 31.6327 309.425 25.0858C309.425 18.5389 307.57 13.2577 303.86 9.24231C300.194 5.22687 295.349 3.21915 289.326 3.21915C283.303 3.21915 278.436 5.22687 274.726 9.24231C271.06 13.2577 269.227 18.5389 269.227 25.0858C269.227 31.6327 271.06 36.9139 274.726 40.9293ZM321.056 45.3158C320.925 44.7047 320.859 43.5263 320.859 41.7804C320.859 40.0346 321.187 38.1796 321.841 36.2156H322.431C322.387 36.6957 322.365 37.1758 322.365 37.6559C322.365 40.3183 323.173 42.5442 324.787 44.3337C326.402 46.0796 328.541 46.9525 331.203 46.9525C333.953 46.9525 336.201 46.1232 337.947 44.4647C339.736 42.8061 340.631 40.7329 340.631 38.2451C340.631 35.7136 339.78 33.6623 338.078 32.091L325.508 20.4375C323.151 18.2552 321.972 15.6146 321.972 12.5158C321.972 9.41689 322.998 6.77631 325.049 4.594C327.144 2.36805 329.959 1.25508 333.495 1.25508C335.153 1.25508 337.03 1.47331 339.125 1.90977H341.678V9.96247H341.089C341.089 7.9111 340.369 6.27438 338.929 5.05229C337.532 3.8302 335.721 3.21915 333.495 3.21915C331.269 3.21915 329.392 3.96114 327.864 5.4451C326.381 6.92907 325.639 8.78402 325.639 11.01C325.639 13.2359 326.511 15.1563 328.257 16.7713L341.155 28.6866C343.337 30.6943 344.428 33.444 344.428 36.9357C344.428 40.4274 343.315 43.308 341.089 45.5776C338.863 47.8036 335.895 48.9166 332.185 48.9166C330.265 48.9166 328.214 48.611 326.031 48C323.893 47.4326 322.234 46.5379 321.056 45.3158ZM357.822 7.86746C362.492 3.45921 368.537 1.25508 375.957 1.25508C383.421 1.25508 389.487 3.45921 394.158 7.86746C398.828 12.2321 401.163 17.9715 401.163 25.0858C401.163 32.2001 398.828 37.9614 394.158 42.3697C389.487 46.7343 383.421 48.9166 375.957 48.9166C368.537 48.9166 362.492 46.7343 357.822 42.3697C353.152 37.9614 350.817 32.2001 350.817 25.0858C350.817 17.9715 353.152 12.2321 357.822 7.86746ZM361.358 40.9293C365.067 44.9448 369.934 46.9525 375.957 46.9525C381.98 46.9525 386.825 44.9448 390.491 40.9293C394.201 36.9139 396.056 31.6327 396.056 25.0858C396.056 18.5389 394.201 13.2577 390.491 9.24231C386.825 5.22687 381.98 3.21915 375.957 3.21915C369.934 3.21915 365.067 5.22687 361.358 9.24231C357.691 13.2577 355.858 18.5389 355.858 25.0858C355.858 31.6327 357.691 36.9139 361.358 40.9293Z" fill="white"/>
</svg>
